<?xml version="1.0" encoding="utf-8"?>
<!-- Generator: Adobe Illustrator 27.5.0, SVG Export Plug-In . SVG Version: 6.00 Build 0)  -->
<svg version="1.1" xmlns="http://www.w3.org/2000/svg" xmlns:xlink="http://www.w3.org/1999/xlink" x="0px" y="0px"
	 viewBox="0 0 500 500" style="enable-background:new 0 0 500 500;" xml:space="preserve">
<g id="BACKGROUND">
	<rect style="fill:#FFFFFF;" width="500" height="500"/>
</g>
<g id="OBJECTS">
	<path style="fill:#DEF0E7;" d="M153.899,453.984c35.819,13.649,81.599,6.321,107.323-23.457
		c7.794-9.022,13.324-19.588,19.155-29.908c6.168-10.916,13.219-21.069,21.912-30.141c8.371-8.737,17.822-16.35,28.178-22.611
		c10.179-6.154,21.12-10.468,32.08-14.985c20.629-8.501,39.004-19.636,48.172-40.949c3.945-9.17,5.966-18.818,6.446-28.568
		c0.566-2.13,1.072-4.269,1.517-6.407c4.675-22.452,5.379-45.537,9.775-68.079c3.784-19.405,7.866-39.861,2.482-59.381
		c-6.119-22.189-23.629-38.878-39.979-54.041c-16.374-15.185-34.852-29.197-57.111-34.013c-18.062-3.909-36.976-1.972-54.393,3.905
		c-40.001,13.498-71.915,44.907-93.075,80.698c-11.909,20.143-19.263,42.09-26.992,64.049
		c-7.408,21.049-15.853,42.693-31.654,58.987c-16.632,17.151-40.207,27.107-52.834,48.15c-10.502,17.502-10.01,38.961-4.959,58.125
		C81.171,397.955,112.129,438.067,153.899,453.984z"/>
	<path style="fill:#EBF8FE;" d="M178.799,62.466c-3.837-19.828-23.115-26.988-41.381-26.761
		c-18.835,0.234-36.864,7.209-51.964,18.291c-33.073,24.271-48.31,66.794-52.518,106.271c-2.054,19.27,0.284,40.39,14.549,54.811
		c13.716,13.866,33.516,15.277,50.12,5.596c17.915-10.446,27.925-29.859,36.68-48.297c0.164-0.138,0.325-0.285,0.48-0.449
		c14.056-14.949,25.321-32.415,33.157-51.385c4-9.683,7.037-19.742,9.193-29.992C179.032,81.438,180.592,71.732,178.799,62.466z"/>
	<path style="fill:#EAECE9;" d="M461.828,437.336c6.422-2.227,9.431-8.391,10.736-14.861c6.024-29.88-5.887-61.971-26.732-82.43
		c-4.299-7.233-10.477-12.875-19.154-14.919c-14.771-3.481-28.604,3.984-40.981,11.617c-6.826,4.209-13.622,8.474-20.424,12.724
		c-6.339,3.96-12.164,7.992-14.261,15.759c-3.472,12.857,3.721,26.364,12.193,35.185c8.647,9.002,19.824,14.977,31.005,19.934
		c14.559,6.454,29.669,12.438,45.25,15.716C446.219,437.482,455.025,439.695,461.828,437.336z"/>
	<path style="fill:#D7F0F3;" d="M379.205,452.239c7.577-20.42-16.671-45.896-34.707-48.312
		c-23.545-3.154-51.402,2.807-67.886,21.451c-9.269,19.158,17.525,38.871,30.789,50.635
		C333.457,497.65,366.672,477.239,379.205,452.239z"/>
	<path style="fill:none;stroke:#9FABA5;stroke-width:0.771;stroke-miterlimit:10;" d="M107.266,333.988
		c11.296,13.155,25.077,24.506,42.034,29.273c16.023,4.505,32.999,2.288,48.693-2.454c8.177-2.471,16.129-5.634,23.959-9.033
		c8.001-3.472,16.294-6.848,23.692-11.507c7.379-4.647,13.505-11.069,15.757-19.681c2.189-8.37,0.572-17.153-0.654-25.534
		c-1.523-10.419-2.672-20.892-3.437-31.394c-0.35-4.798-1.035-9.885-0.136-14.654c0.918-4.87,4.045-8.845,7.819-11.923
		c16.115-13.142,38.391-12.414,58.003-13.155c19.449-0.735,40.343-4.115,56.278-16.244c14.368-10.936,15.126-31.889,10.633-47.998
		c-4.684-16.795-15.75-29.775-30.534-38.615c-4.426-2.647-8.817-5.251-12.561-8.843c-3.787-3.633-6.836-7.937-9.728-12.292
		c-5.575-8.395-10.812-16.845-18.072-23.935c-4.134-4.037-8.71-7.604-13.599-10.674c-12.237-11.482-26.507-20.331-43.726-24.039
		c-33.749-7.268-67.249,7.894-97.054,22.016c-35.092,16.628-72.765,34.264-94.039,68.465
		c-18.099,29.096-21.491,65.304-14.958,98.407c3.881,19.665,11.247,38.47,20.462,56.22
		C84.788,303.137,94.951,319.645,107.266,333.988z"/>
	<path style="fill:none;stroke:#9FABA5;stroke-width:0.9703;stroke-miterlimit:10;" d="M233.936,408.783
		c-3.906,25.114,15.871,41.807,37.597,49.322c22.403,7.749,46.724,7.171,69.326,0.484c49.505-14.648,85.667-58.507,107.472-103.46
		c10.644-21.943,16.875-47.948,6.128-71.102c-10.333-22.264-33.177-32.372-56.965-27.983c-25.665,4.735-45.79,23.457-64.014,41.56
		c-0.253,0.093-0.506,0.199-0.759,0.328c-23.014,11.711-43.796,27.594-61.158,46.717c-8.863,9.761-16.745,20.378-23.666,31.597
		C241.744,386.219,235.761,397.047,233.936,408.783z"/>
	<path style="fill:#5F6763;" d="M413.092,242.318c-2.134-2.722-4.219-4.175-8.083-7.585c-1.848-1.631-1.826-3.307-3.936-8.053
		c-8.44-18.977-48.772-28.578-49.622-30.552c5.396-11.673,13.138-51.71,13.357-56.613c0.229-5.121,4.129-6.289,12.797-27.443
		c5.327-13,12.392-24.985,20.651-36.303c3.424-4.691,3.367-6.803,8.82-13.764c4.394-5.609,1.277-8.22,3.356-12.604
		c0.771-1.625-1.312-3.19-3.457-1.637c-2.556,1.851-2.482,4.59-3.307,4.739c-1.064,0.193-7.486,8.935-14.758,10.792
		c-5.849,1.493-10.395,2.178-13.373,6.435c-1.717,2.456-1.4,5.275,2.076,7.689c3.459,2.402-18.661,22.042-20.013,23.012
		c-20.606,14.767-9.685,32.87-26.315,53.646c-5.297,6.617-33.496,48.913-36.505,57.659c-0.779,2.265-13.955,2.665-50.135,36.092
		c-30.626,28.296-37.071,49.891-122.59,91.124c-13.078,6.306-14.902,9.221-22.217,11.044c-9.778,2.436-7.676,4.933-16.698,12.643
		c-1.645,1.406,0.108,3.349,1.622,3.728c1.645,0.412-0.117,2.793,3.183,2.401c1.301-0.154,1.479,2.432,4.489,0.053
		c2.019,1.871,2.276,0.011,3.432,0.504c3.731,1.591,3.74-3.754,5.601-3.029c1.974,0.769,3.977,0.521,5.958,0.102
		c28.176-5.951,23.363-2.69,30.677-5.206c4.497-1.547,5.786-6.655,5.011-9.86c-2.513-10.405,58.646-15.829,76.834-38.427
		c26.374-32.767,32.7-21.894,70.737-48.276c12.93-8.968,9.396-4.154,18.052-4.729c24.022-1.596,25.639-21.828,37.853-21.617
		c24.298,0.421,5.779,32.672,24.72,68.712c-0.13,0.021-0.268,0.04-0.426,0.052c-1.441,0.112-2.871,0.074-4.29,0.64
		c-6.62,2.64-7.07,4.709-7.743,3.781c-0.207-0.285,0.203-0.542,0.643-1.369c0.548-1.029,0.295-2.406-0.617-2.983
		c-1.39-0.88-0.617-2.559-2.552-3.229c-6.021-2.085-1.158-1.932-4.184-4.353c-0.961-0.769-2.163-0.904-3.254-1.334
		c-0.959-0.377-1.848,0.011-2.767,0.085c-0.182,0.015-0.311,0.145-0.406,0.305c-0.72,1.218-1.165-0.459-5.115,0.45
		c-0.241,0.055-0.494,0.103-0.527,0.422c-0.354,0.147-0.694,0.303-1.098,0.322c-1.605,0.076-1.987,1.155-3.507,2.129
		c-0.659,0.423-1.222,0.922-1.706,1.525c-0.515,0.071-0.637,0.445-0.735,0.884c-0.4,1.778,1.337,2.467-0.097,2.891
		c-0.705,0.208-1.457,0.379-1.919,0.994c-0.708,0.944-1.206,1.954-0.835,3.22c0.493,1.683-0.648,1.852-0.706,2.826
		c-0.103,1.741-0.281,3.496,0.553,5.122c0.23,0.449,0.187,0.763-0.069,1.152c-0.711,1.082-1.116,2.326-1.819,3.423
		c-1.546,2.414,2.767,3.461,1.626,4.674c-0.828,0.88-0.695,2.657,0.359,3.167c0.548,0.265,1.07,0.678,1.712,0.741
		c1.141,0.112-0.135,2.989,3.414,3.859c0.331,0.081,0.545,0.176,0.719,0.501c0.983,1.835,3.304,2.56,5.088,1.534
		c1.129-0.648,2.81-0.078,3.98,0.493c0.027,0.013,0.047,0.018,0.073,0.03c1.745,6.999,5.441,12.95,10.345,18.143
		c6.384,6.761,12.996,5.757,20.582,4.099c0.771,1.911-3.875,10.789-4.911,28.079c-0.294,4.91-0.448,9.828-0.802,14.736
		c-0.187,2.599-0.487,5.185-0.857,7.76c-2.178,15.162-2.279,15.083-3.582,15.387c-21.411,5.004-34.601,2.771-31.028,7.367
		c2.118,2.725,12.725-0.092,13.332,2.123c0.489,1.783,4.205,1.972,6.283,1.544c6.077-1.252,7.354,1.822,14.924,0.583
		c-0.809,0.924-1.581,1.5-2.533,1.737c-2.072,0.515-13.809,3.453-17.019,3.016c-1.206-0.165-0.35,1.112-1.933,1.248
		c-0.67,0.058-12.834,1.63-12.684,4.192c-2.254,0.854-1.038,2.923,2.948,2.576c1.406-0.123,1.483,1.306,4.831,0.646
		c3.093-0.61,3.359-0.818,3.73-0.305c1.162,1.604,1.589,0.958,11.595,0.042c25.896-2.368,17.174,9.748,36.581-57.11
		c3.586-12.353,0.563-10.585,2.769-31.998c0.258-2.506,0.654-5,0.658-7.528c0.001-0.926,0.01-1.852-0.009-2.777
		c-0.008-0.411,0.125-0.576,0.561-0.635c0.746-0.102,1.297-0.467,1.527-1.28c0.534-1.882,2.284-1.624,3.325-2.024
		c2.207-0.85,3.35-2.593,2.532-5.73c-1.388-5.325-5.096-10.394-3.482-19.37c0.7-3.894,0.109-8.388-0.814-12.235
		c-2.366-9.862,13.852-48.592,13.892-48.695C418.577,255.504,418.253,248.903,413.092,242.318z"/>
</g>
</svg>
