<?xml version="1.0" encoding="utf-8"?>
<!-- Uploaded to: SVG Repo, www.svgrepo.com, Generator: SVG Repo Mixer Tools -->
<svg width="800px" height="800px" viewBox="0 0 1024 1024" class="icon"  version="1.1" xmlns="http://www.w3.org/2000/svg"><path d="M149.512 886.568a381.344 81.488 0 1 0 762.688 0 381.344 81.488 0 1 0-762.688 0Z" fill="#B8CBCD" /><path d="M893.16 108.528a21.48 21.48 0 0 0-0.2-0.672l-0.464 0.456c-21.608-6.68-308.352-89-561.104 163.76-252.76 252.752-173.944 543.032-167.536 564.888l-0.488 0.48s0.264 0.096 0.688 0.224l0.2 0.664 0.472-0.464c21.6 6.688 308.344 89.008 561.104-163.752 252.768-252.776 173.952-543.016 167.536-564.888l0.488-0.488c-0.008 0.008-0.264-0.08-0.696-0.208z" fill="#FFBAB0" /><path d="M303.4 879.928h-0.032c-73.104-0.008-125.8-13.344-142.144-18.064a25.08 25.08 0 0 1-12.272-5.304 24.088 24.088 0 0 1-9.456-17.584c-13.56-50.032-75.632-333.328 174.928-583.88 156.08-156.08 325.12-188.84 439.44-188.84 73.08 0 125.84 13.36 142.16 18.064a25.096 25.096 0 0 1 12.296 5.344 24.08 24.08 0 0 1 9.4 17.496c13.528 49.904 75.632 333.368-174.912 583.92-156.08 156.072-325.096 188.848-439.408 188.848z m-119.576-61.712c20.136 5.008 63.24 13.712 119.544 13.712h0.024c105.24 0 261-30.32 405.464-174.784 219.552-219.568 177.952-471.136 164.536-529.184-20.152-5-63.28-13.704-119.536-13.704-105.248 0-261.04 30.32-405.496 174.784C128.728 508.672 170.4 760.176 183.824 818.216z" fill="#783741" /><path d="M179.272 859.608c-6.136 0-10.728-0.192-13.688-0.384a15.744 15.744 0 0 1-8.728-1.72 16.016 16.016 0 0 1-8.392-9.376 16.272 16.272 0 0 1-0.592-8.096c-1.552-37.592 1.392-253.016 247.224-498.84 226.216-226.216 426.768-243.8 482.848-243.8 6.128 0 10.72 0.192 13.68 0.384a15.36 15.36 0 0 1 8.56 1.624 16.096 16.096 0 0 1 9.168 17.656c1.56 37.832-1.488 253.032-247.224 498.768-226.2 226.2-426.76 243.784-482.856 243.784z m698.144-730.216c-53.696 0.112-242.896 17.616-459.696 234.424-217.064 217.056-236.84 410.912-237.912 463.792 53.704-0.12 242.896-17.624 459.688-234.424 217.152-217.136 236.864-410.936 237.92-463.792z" fill="#783741" /><path d="M373.944 468.016a16.024 16.024 0 0 1-12.432-26.088c-0.088-2.984-2.848-11.808-12.528-21.48-9.672-9.672-18.496-12.44-21.48-12.528a16 16 0 0 1-21.4-23.736c15.016-15.016 42.576-9.296 65.512 13.624 9.328 9.336 16.296 20.248 19.632 30.744 4.416 13.88 2.224 26.552-6 34.784-3.12 3.12-7.216 4.68-11.304 4.68zM430.104 412.792a16 16 0 0 1-12.424-26.08c-0.096-2.984-2.856-11.816-12.528-21.488-9.672-9.672-18.496-12.44-21.48-12.528a16.008 16.008 0 0 1-21.4-23.744c8.224-8.208 20.896-10.416 34.784-5.992 10.496 3.344 21.408 10.32 30.728 19.64s16.296 20.224 19.632 30.72c4.416 13.88 2.232 26.56-5.992 34.784a16 16 0 0 1-11.32 4.688zM485.944 356.016a16 16 0 0 1-12.424-26.088c-0.096-2.984-2.856-11.808-12.536-21.48-9.68-9.68-18.504-12.44-21.488-12.536a16 16 0 0 1-21.384-23.76c15.04-14.984 42.568-9.248 65.504 13.656 22.928 22.944 28.664 50.496 13.64 65.512-3.12 3.136-7.216 4.696-11.312 4.696z" fill="#783741" /><path d="M431.08 842.248c-16.936-52.208-51.664-108.416-101.512-158.24-51.856-51.856-110.592-87.368-164.568-103.48l34.504-101.88c53.968 16.112 152.456 79.232 204.32 131.096 49.84 49.832 123.824 142.168 140.752 194.384l-113.496 38.12z" fill="#FFFFFF" /><path d="M431.08 858.248a16 16 0 0 1-15.216-11.064c-16.808-51.816-51.472-105.744-97.608-151.864-48.128-48.128-104.176-83.448-157.824-99.464a16.016 16.016 0 0 1-10.584-20.464l34.504-101.88a15.968 15.968 0 0 1 19.736-10.192c56.648 16.904 157.248 81.304 211.056 135.112 48.888 48.88 126.088 143.488 144.664 200.76a16 16 0 0 1-10.128 20.104l-113.504 38.128a16.176 16.176 0 0 1-5.096 0.824zM185.328 570.376c53.688 19.256 108.36 55.136 155.544 102.32 45.192 45.168 80.272 97.672 100.032 149.376l82.584-27.744c-23.576-51.232-88.256-130.552-130.984-173.272-45.528-45.52-129.448-100.912-183.032-121.984l-24.144 71.304z" fill="#783741" /><path d="M431.08 842.248c-16.936-52.208-51.664-108.416-101.512-158.24-51.856-51.856-110.592-87.368-164.568-103.48l34.504-101.88c53.968 16.112 152.456 79.232 204.32 131.096 49.84 49.832 123.824 142.168 140.752 194.384l-113.496 38.12z" fill="#FFFFFF" /><path d="M431.08 858.248a16 16 0 0 1-15.216-11.064c-16.808-51.816-51.472-105.744-97.608-151.864-48.128-48.128-104.176-83.448-157.824-99.464a16.016 16.016 0 0 1-10.584-20.464l34.504-101.88a15.968 15.968 0 0 1 19.736-10.192c56.648 16.904 157.248 81.304 211.056 135.112 48.888 48.88 126.088 143.488 144.664 200.76a16 16 0 0 1-10.128 20.104l-113.504 38.128a16.176 16.176 0 0 1-5.096 0.824zM185.328 570.376c53.688 19.256 108.36 55.136 155.544 102.32 45.192 45.168 80.272 97.672 100.032 149.376l82.584-27.744c-23.576-51.232-88.256-130.552-130.984-173.272-45.528-45.52-129.448-100.912-183.032-121.984l-24.144 71.304z" fill="#783741" /><path d="M888.72 384.6c-52.216-16.92-108.408-51.664-158.248-101.504-51.856-51.856-87.352-110.592-103.464-164.56L525.12 153.032c16.112 53.976 79.24 152.472 131.096 204.328 49.84 49.832 142.168 123.808 194.392 140.744l38.112-113.504z" fill="#FFFFFF" /><path d="M850.608 514.112c-1.64 0-3.304-0.256-4.944-0.792-57.272-18.576-151.88-95.768-200.768-144.648-53.808-53.808-118.2-154.408-135.112-211.064a16.008 16.008 0 0 1 10.2-19.736l101.888-34.496a16.024 16.024 0 0 1 20.464 10.576c16.016 53.664 51.328 109.712 99.44 157.832 46.168 46.16 100.096 80.816 151.872 97.592a16 16 0 0 1 10.232 20.312l-38.12 113.504a16 16 0 0 1-15.152 10.92zM545.536 163.008c21.072 53.592 76.464 137.504 121.992 183.04 42.72 42.712 122.048 107.384 173.28 130.968l27.736-82.576c-51.664-19.744-104.168-54.816-149.384-100.024-47.184-47.176-83.048-101.848-102.304-155.544l-71.32 24.136z" fill="#783741" /></svg>