<?xml version="1.0" standalone="no"?>
<!DOCTYPE svg PUBLIC "-//W3C//DTD SVG 20010904//EN"
 "http://www.w3.org/TR/2001/REC-SVG-20010904/DTD/svg10.dtd">
<svg version="1.0" xmlns="http://www.w3.org/2000/svg"
 width="870.000000pt" height="525.000000pt" viewBox="0 0 870.000000 525.000000"
 preserveAspectRatio="xMidYMid meet">

<g transform="translate(0.000000,525.000000) scale(0.100000,-0.100000)"
fill="#000000" stroke="none">
<path d="M0 3250 l0 -2000 476 2 476 3 61 148 c47 113 66 147 79 147 35 0 148
-25 148 -32 0 -4 -11 -45 -24 -91 -33 -115 -65 -314 -67 -420 -1 -48 0 -89 2
-91 2 -2 41 -6 87 -9 l84 -6 -9 102 c-12 152 -10 384 5 442 l13 50 76 -3 c46
-3 78 0 82 6 3 6 29 14 57 17 l51 7 32 -148 c28 -128 60 -321 61 -361 0 -8
-13 -13 -32 -13 -37 0 -33 -9 5 -12 18 -2 27 -8 27 -20 0 -9 4 -20 10 -23 18
-11 131 7 147 24 9 9 23 16 30 16 23 0 16 19 -13 36 -26 14 -33 29 -61 135
-17 65 -50 171 -73 234 -60 164 -59 156 -13 165 21 3 65 16 98 27 l60 20 57
-64 c32 -34 57 -68 58 -74 0 -6 50 -43 110 -82 67 -43 117 -83 128 -102 l17
-30 645 0 646 0 44 90 c24 49 50 92 57 94 7 3 13 17 13 31 0 14 9 38 19 53 11
15 50 101 86 192 37 91 73 171 81 179 11 12 24 12 89 1 70 -12 76 -15 71 -34
-51 -175 -82 -347 -90 -493 -4 -79 -2 -92 12 -99 9 -4 188 -9 397 -11 361 -3
378 -2 348 14 -36 18 -39 29 -18 57 21 27 19 30 -18 48 -31 15 -35 22 -65 138
-18 67 -53 177 -77 245 -25 68 -45 128 -45 133 0 5 15 13 34 16 19 4 63 16 98
27 l63 21 57 -64 c32 -34 57 -68 58 -74 0 -6 49 -43 109 -82 60 -38 116 -81
124 -93 8 -13 34 -106 58 -206 l43 -183 620 0 621 0 54 133 c29 72 57 135 61
140 3 4 42 1 86 -6 58 -10 78 -18 76 -28 -2 -8 -17 -63 -33 -124 -31 -122 -59
-312 -59 -409 l0 -63 87 -6 c48 -4 88 -5 90 -3 2 1 -2 40 -8 87 -22 167 -12
451 17 500 1 3 33 2 71 -2 50 -5 72 -4 83 6 8 7 36 16 61 20 l47 7 25 -109
c35 -149 44 -199 63 -343 8 -69 18 -127 20 -129 2 -2 34 0 71 5 64 9 68 10 71
37 3 23 7 27 25 22 17 -4 16 -2 -5 10 -19 10 -31 29 -38 58 -31 118 -72 252
-105 342 -20 55 -37 106 -38 114 -1 8 24 20 72 33 41 10 83 24 95 30 18 10 27
4 78 -53 32 -35 58 -69 58 -75 0 -6 47 -41 105 -78 57 -37 113 -78 124 -92
l19 -24 551 0 551 0 0 2000 0 2000 -4350 0 -4350 0 0 -2000z m3673 981 c20
-20 -12 -32 -40 -14 -16 11 -37 14 -70 10 -44 -5 -46 -4 -28 10 23 17 119 13
138 -6z m429 -600 l12 -54 140 7 c77 3 142 9 144 11 8 8 7 97 -1 150 l-7 50
19 -35 c10 -19 24 -60 31 -90 20 -92 19 -91 46 -85 13 3 35 7 49 10 21 5 25
11 25 43 0 20 -9 66 -20 102 -11 36 -20 67 -20 70 1 17 73 -113 83 -148 l12
-44 76 7 c70 6 78 5 83 -12 3 -11 4 -145 1 -298 -5 -266 -6 -280 -28 -316 -25
-41 -129 -139 -202 -189 l-49 -33 40 -14 c21 -8 114 -30 206 -48 136 -28 173
-32 198 -23 25 8 34 7 48 -5 12 -11 50 -18 125 -23 74 -5 107 -10 107 -19 0
-13 43 -25 89 -25 24 0 29 6 40 49 8 33 19 52 35 59 16 7 27 28 41 73 21 72
32 92 48 82 5 -3 18 4 27 17 18 23 40 20 40 -6 0 -8 7 -14 15 -14 8 0 16 -4
16 -10 1 -5 2 -15 3 -20 0 -6 7 -15 15 -19 31 -20 -28 -228 -88 -307 l-37 -49
-91 4 -90 3 -31 -53 c-17 -30 -39 -64 -50 -77 l-18 -23 -222 11 c-122 6 -245
15 -273 19 l-52 8 6 -72 c3 -43 16 -98 31 -137 14 -35 26 -72 26 -80 0 -19
-71 -66 -160 -106 -100 -45 -207 -66 -309 -59 -80 5 -289 51 -356 78 -17 6
-73 13 -125 16 -91 4 -97 6 -128 36 -51 48 -92 115 -92 147 0 41 43 171 101
306 59 139 64 147 133 199 52 39 156 132 156 140 0 2 -29 19 -64 39 -35 20
-78 52 -95 71 -25 29 -42 38 -88 46 -32 6 -70 17 -85 25 -83 43 -140 154 -119
232 14 49 39 72 89 79 l39 5 57 -87 c32 -47 59 -85 61 -83 2 2 -10 41 -25 88
-16 46 -32 113 -36 149 -8 73 4 91 60 91 l31 0 0 93 c0 54 6 108 15 132 l14
40 7 -70 c4 -38 12 -89 19 -112 15 -50 16 -50 140 -26 l88 16 5 71 c3 39 13
96 23 126 l18 55 8 -65 c4 -36 13 -89 20 -119z m-2492 -191 c0 -6 -19 -31 -42
-57 -57 -61 -178 -118 -178 -82 0 25 88 101 145 124 68 28 75 29 75 15z m5325
-70 c156 -50 274 -59 358 -26 27 10 52 14 56 10 5 -5 18 -49 31 -99 18 -73 24
-131 30 -305 4 -118 3 -229 -2 -247 -22 -82 -171 -257 -244 -288 -53 -22 -42
-27 169 -70 146 -30 182 -35 213 -26 31 9 39 8 49 -6 9 -13 36 -17 118 -21 94
-4 107 -7 113 -24 5 -16 14 -19 62 -16 48 3 57 6 60 23 6 40 23 71 44 80 16 7
27 29 41 83 18 63 23 72 44 72 14 0 23 6 23 15 0 8 8 15 18 15 21 0 62 -42 62
-63 0 -8 6 -17 14 -20 10 -4 11 -17 4 -64 -15 -101 -58 -207 -105 -263 -26
-31 -28 -32 -83 -26 -83 10 -137 -1 -144 -28 -3 -13 -22 -44 -41 -69 l-36 -47
-77 0 c-84 0 -335 16 -420 26 l-54 7 7 -59 c8 -70 41 -190 55 -199 21 -13 8
-43 -28 -68 -198 -131 -374 -156 -634 -92 -79 20 -159 42 -178 48 -19 7 -71
12 -114 11 -77 -1 -80 0 -117 33 -45 41 -99 122 -99 149 0 34 79 254 127 356
42 90 53 104 109 146 63 48 164 139 164 148 0 2 -33 36 -72 74 l-73 70 -61 0
c-85 0 -139 30 -181 100 -38 62 -44 130 -18 181 46 88 197 43 258 -76 l16 -30
25 55 c55 120 72 275 42 387 -16 60 -11 71 55 124 103 81 204 86 414 19z
m-5050 -47 c-4 -27 -11 -56 -16 -65 -5 -10 -7 -18 -4 -18 13 0 51 23 76 47
l26 24 12 -43 c25 -95 31 -159 31 -355 0 -188 -2 -207 -21 -246 -34 -67 -126
-174 -181 -212 l-51 -34 29 -12 c16 -6 104 -26 196 -45 128 -25 174 -31 199
-24 25 7 37 6 49 -5 10 -9 52 -16 123 -21 74 -5 107 -11 107 -19 0 -13 43 -25
89 -25 23 0 28 6 39 46 8 31 19 48 32 51 11 3 25 22 34 47 8 22 20 59 28 81 8
23 20 40 29 40 8 0 23 8 33 18 19 19 36 15 36 -9 0 -8 7 -14 15 -14 14 0 20
-12 16 -33 -1 -4 6 -10 14 -13 19 -8 19 -36 -1 -121 -19 -83 -64 -180 -100
-216 -25 -26 -28 -26 -118 -20 l-91 6 -14 -38 c-7 -20 -21 -47 -32 -59 -10
-11 -24 -29 -32 -40 -13 -18 -23 -18 -233 -7 -120 6 -243 14 -271 17 l-53 7 0
-39 c0 -54 26 -156 51 -205 19 -39 19 -42 3 -60 -28 -31 -190 -109 -270 -129
-116 -30 -210 -26 -377 14 -78 19 -155 40 -172 46 -16 7 -73 14 -125 17 -94 4
-96 5 -133 41 -47 46 -87 113 -87 146 0 51 90 291 151 406 19 35 47 68 78 90
26 19 77 61 111 94 l64 58 -28 21 c-31 22 -96 90 -109 113 -5 10 -27 14 -68
14 -101 0 -171 52 -199 147 -26 85 15 163 85 163 75 0 137 -47 175 -132 24
-56 33 -62 19 -16 -14 50 -11 123 7 168 10 24 39 60 73 90 l56 50 18 -21 c9
-12 17 -27 17 -35 0 -8 10 -14 25 -14 14 0 24 5 23 11 -5 19 47 50 88 54 21 1
56 -4 77 -12 27 -11 41 -13 49 -5 14 14 -47 52 -83 52 -32 0 -38 18 -30 80 l6
45 93 6 c83 5 102 10 173 47 89 45 92 42 43 -47 -13 -24 -23 -46 -21 -47 2 -2
26 3 54 11 53 16 137 81 148 115 13 41 27 21 20 -27z m-587 -115 c5 -24 12
-50 16 -58 4 -10 -3 -19 -21 -27 -39 -19 -43 -17 -37 20 9 49 24 107 29 107 2
0 8 -19 13 -42z m3091 -1485 c46 -216 65 -355 49 -364 -14 -9 -129 -18 -269
-21 l-96 -3 -7 89 c-9 129 -7 252 4 326 17 102 9 96 100 92 51 -3 80 0 80 6 0
11 26 18 76 21 l31 1 32 -147z"/>
<path d="M4551 3504 c-51 -43 -35 -62 18 -23 29 21 61 22 119 4 32 -10 29 18
-3 33 -45 21 -100 15 -134 -14z"/>
<path d="M4093 3490 c-40 -9 -103 -56 -103 -76 0 -20 8 -18 52 12 50 35 116
42 168 19 22 -10 43 -15 47 -12 12 13 -29 45 -72 56 -48 12 -47 12 -92 1z"/>
<path d="M4635 3393 c43 -6 74 -33 90 -78 8 -22 14 -33 15 -24 1 58 -51 111
-107 107 l-28 -1 30 -4z"/>
<path d="M4602 3363 c-10 -4 -9 -8 4 -18 23 -17 11 -49 -16 -42 -25 6 -27 -19
-4 -51 20 -29 76 -30 104 -2 55 55 -14 143 -88 113z"/>
<path d="M4102 3339 c-50 -20 -77 -74 -63 -124 9 -29 9 -28 10 12 1 52 37 97
89 111 28 8 31 10 12 10 -14 1 -36 -3 -48 -9z"/>
<path d="M4130 3300 c-13 -8 -13 -11 -1 -19 21 -14 5 -44 -20 -38 -18 5 -20 2
-14 -21 7 -33 40 -62 70 -62 38 0 75 37 75 75 0 55 -66 94 -110 65z"/>
<path d="M4474 3022 c-24 -37 -160 -53 -180 -21 -7 12 -44 12 -44 -1 0 -5 13
-24 28 -41 28 -31 29 -32 55 -15 19 13 31 15 44 7 13 -6 24 -6 34 1 12 8 11 9
-2 5 -9 -3 -22 -1 -30 5 -10 7 4 8 44 5 55 -5 58 -5 72 23 8 16 15 34 15 40 0
17 -24 11 -36 -8z"/>
<path d="M7210 3188 c-47 -13 -105 -57 -92 -70 6 -6 24 0 50 17 47 31 103 35
150 11 38 -20 42 -20 42 -1 0 32 -94 60 -150 43z"/>
<path d="M6675 3136 c-41 -18 -95 -65 -95 -82 0 -18 27 -18 37 0 25 44 133 73
181 47 28 -15 52 -14 52 3 0 18 -70 46 -113 46 -17 -1 -45 -7 -62 -14z"/>
<path d="M7273 3020 c47 -9 76 -36 88 -81 8 -33 9 -33 4 6 -6 53 -42 85 -93
84 l-37 -1 38 -8z"/>
<path d="M6661 2961 c-26 -24 -31 -37 -31 -73 0 -24 7 -53 15 -64 14 -18 15
-17 4 8 -27 62 17 135 88 148 l38 8 -41 1 c-33 1 -48 -5 -73 -28z"/>
<path d="M7237 2973 c-28 -32 -31 -69 -8 -92 53 -53 142 3 115 73 -6 15 -7 15
-19 0 -15 -21 -39 -9 -32 17 7 25 -33 26 -56 2z"/>
<path d="M6734 2938 c-24 -11 -44 -48 -44 -78 0 -28 50 -70 83 -70 54 0 97 74
68 118 -7 11 -9 11 -14 -2 -4 -9 -14 -16 -23 -16 -13 0 -15 6 -10 30 5 26 3
30 -17 29 -12 0 -32 -5 -43 -11z"/>
<path d="M7140 2650 c-18 -33 -69 -53 -141 -54 -51 -1 -72 3 -86 17 -26 23
-63 23 -63 -1 0 -10 13 -33 29 -52 l28 -34 63 28 c61 28 103 31 152 11 20 -8
45 25 54 73 5 25 3 32 -9 32 -9 0 -21 -9 -27 -20z"/>
<path d="M1776 3147 c-70 -40 -58 -64 14 -27 46 24 108 26 136 5 10 -8 25 -15
32 -15 22 0 12 25 -17 43 -42 24 -117 22 -165 -6z"/>
<path d="M1887 3008 c43 -17 64 -39 73 -79 l8 -34 1 32 c1 42 -34 82 -79 88
l-35 5 32 -12z"/>
<path d="M1289 2959 c-30 -33 -39 -88 -19 -119 7 -11 8 -6 4 16 -12 64 30 115
106 127 15 3 7 5 -18 6 -37 1 -49 -4 -73 -30z"/>
<path d="M1830 2960 c-39 -39 -11 -110 43 -110 31 0 67 35 67 65 0 20 -5 24
-22 22 -18 -1 -23 3 -22 21 1 29 -38 30 -66 2z"/>
<path d="M1335 2925 c-14 -13 -25 -36 -25 -50 0 -33 42 -75 75 -75 35 0 75 42
75 79 0 16 -4 33 -10 36 -5 3 -10 1 -10 -4 0 -6 -10 -11 -21 -11 -17 0 -20 5
-17 25 4 21 1 25 -19 25 -13 0 -35 -11 -48 -25z"/>
<path d="M1734 2645 c-42 -45 -162 -56 -210 -20 -24 18 -64 19 -64 2 0 -8 15
-31 33 -51 l32 -38 50 27 c50 26 75 28 147 10 22 -6 29 -3 41 21 27 54 30 74
10 73 -10 -1 -28 -12 -39 -24z"/>
<path d="M0 1064 l0 -86 405 3 406 3 30 53 c17 29 35 53 40 53 5 0 9 14 9 30
l0 30 -445 0 -445 0 0 -86z"/>
<path d="M2270 1145 c0 -19 35 -142 43 -152 7 -10 128 -13 533 -12 292 1 524
5 524 10 0 4 7 6 15 3 10 -4 15 0 15 15 0 12 17 40 38 64 77 86 142 77 -552
77 -339 0 -616 -2 -616 -5z"/>
<path d="M3919 1113 c-19 -21 -44 -51 -56 -66 -22 -28 -23 -28 -79 -17 -31 7
-71 18 -88 25 -32 13 -34 13 -70 -21 -20 -19 -35 -38 -32 -42 5 -9 1166 -14
1209 -5 44 9 31 50 -19 59 -84 14 -83 13 -86 57 l-3 42 -371 3 -371 2 -34 -37z"/>
<path d="M5113 1138 c1 -7 -20 -24 -48 -38 -46 -24 -50 -29 -53 -67 -3 -37 -1
-41 24 -47 15 -4 280 -6 589 -5 l562 2 19 36 c10 20 24 40 31 44 7 4 13 21 13
37 0 17 7 33 18 39 12 7 -167 10 -570 11 -457 0 -587 -3 -585 -12z"/>
<path d="M7630 1143 c0 -5 4 -24 9 -43 6 -19 15 -54 20 -76 l11 -42 515 -1
515 -2 0 85 0 86 -535 0 c-294 0 -535 -3 -535 -7z"/>
<path d="M4015 803 c-122 -6 -352 -25 -372 -30 -30 -7 -29 -16 8 -57 l30 -35
-20 -20 c-12 -12 -32 -21 -46 -21 -25 0 -35 -15 -14 -22 12 -4 -105 0 -136 5
-11 2 -37 9 -57 16 -37 12 -44 26 -39 69 2 16 -17 15 -59 -6 -79 -39 -23 -84
145 -116 274 -53 590 -71 1055 -63 362 7 453 14 690 53 147 24 260 60 260 84
0 29 -134 81 -242 94 -20 2 -47 7 -60 11 -13 3 -3 -6 22 -20 25 -15 73 -32
108 -38 53 -10 62 -14 62 -32 0 -42 -27 -52 -137 -54 -81 -1 -114 3 -155 19
-38 14 -77 20 -136 20 -81 0 -83 1 -93 28 -6 15 -8 45 -5 68 l5 41 -142 7
c-127 6 -540 5 -672 -1z m-288 -165 c-3 -8 -6 -5 -6 6 -1 11 2 17 5 13 3 -3 4
-12 1 -19z m1146 -5 c-7 -2 -21 -2 -30 0 -10 3 -4 5 12 5 17 0 24 -2 18 -5z
m-1106 -49 c-3 -3 -12 -4 -19 -1 -8 3 -5 6 6 6 11 1 17 -2 13 -5z"/>
<path d="M1200 453 c-30 -1 -116 -8 -190 -14 -74 -6 -141 -11 -147 -12 -18 -1
-16 -10 8 -41 17 -22 24 -25 31 -14 8 10 9 9 5 -3 -3 -9 0 -22 6 -29 9 -9 5
-17 -17 -35 -17 -13 -34 -21 -39 -18 -5 3 -13 0 -17 -8 -13 -20 -126 -17 -182
5 -46 18 -48 21 -48 57 0 28 -4 39 -15 39 -8 0 -13 -6 -11 -12 1 -7 1 -10 -1
-5 -13 21 -103 -19 -103 -47 0 -7 20 -23 43 -34 48 -23 206 -64 218 -57 3 3
20 1 35 -4 48 -15 105 -21 98 -10 -4 7 1 6 12 0 27 -16 373 -37 639 -40 325
-3 713 21 904 55 102 19 213 53 205 65 -3 5 1 6 9 3 15 -5 31 21 22 37 -11 17
-91 46 -174 63 -46 9 -88 19 -92 22 -5 3 -9 3 -9 1 0 -16 96 -58 144 -63 31
-4 58 -10 60 -13 2 -3 -2 -21 -10 -40 -13 -31 -17 -33 -56 -31 -70 4 -100 1
-93 -10 3 -6 1 -10 -4 -10 -6 0 -11 5 -11 11 0 6 -7 8 -15 5 -9 -3 -50 6 -91
20 -62 22 -88 26 -137 21 -85 -8 -104 2 -112 56 -4 26 -2 53 4 64 10 19 5 20
-117 26 -122 7 -639 7 -752 0z m828 -104 c-3 -8 -7 -3 -11 10 -4 17 -3 21 5
13 5 -5 8 -16 6 -23z m-1331 -95 c-3 -3 -12 -4 -19 -1 -8 3 -5 6 6 6 11 1 17
-2 13 -5z m153 -4 c0 -5 -5 -10 -11 -10 -5 0 -7 5 -4 10 3 6 8 10 11 10 2 0 4
-4 4 -10z m1503 3 c-7 -2 -19 -2 -25 0 -7 3 -2 5 12 5 14 0 19 -2 13 -5z
m-1596 -9 c-3 -3 -12 -4 -19 -1 -8 3 -5 6 6 6 11 1 17 -2 13 -5z"/>
<path d="M6400 415 c-80 -8 -153 -14 -162 -14 -26 -1 -22 -16 14 -57 37 -42
30 -67 -21 -72 -18 -2 -35 -10 -38 -18 -4 -11 -21 -13 -82 -9 -42 3 -77 10
-79 15 -2 6 -11 10 -21 10 -25 0 -41 20 -41 53 0 25 -3 27 -22 21 -64 -19 -88
-34 -88 -54 0 -13 11 -25 33 -34 43 -19 69 -28 87 -31 8 -1 33 -7 55 -13 278
-74 1312 -83 1740 -16 93 15 163 32 175 44 3 3 14 5 25 5 11 0 19 6 17 13 -1
8 2 11 7 8 15 -10 41 5 41 24 0 23 -105 70 -164 73 -24 1 -42 5 -39 10 2 4 -5
7 -16 7 -10 0 -28 3 -38 7 -16 6 -16 5 -5 -9 18 -22 96 -48 145 -48 36 0 39
-2 35 -25 -4 -16 0 -25 11 -28 11 -3 10 -5 -4 -6 -12 0 -25 -5 -31 -11 -5 -5
-57 -10 -114 -11 -81 -1 -115 3 -150 17 -30 12 -71 18 -126 19 -104 0 -117 10
-112 81 l3 52 -45 5 c-107 10 -853 4 -990 -8z m-83 -31 c-3 -3 -12 -4 -19 -1
-8 3 -5 6 6 6 11 1 17 -2 13 -5z m-350 -110 c-3 -3 -12 -4 -19 -1 -8 3 -5 6 6
6 11 1 17 -2 13 -5z m43 -24 c0 -5 -2 -10 -4 -10 -3 0 -8 5 -11 10 -3 6 -1 10
4 10 6 0 11 -4 11 -10z m1700 -24 c0 -2 -9 -6 -20 -9 -11 -3 -18 -1 -14 4 5 9
34 13 34 5z m-1077 -53 c-7 -2 -21 -2 -30 0 -10 3 -4 5 12 5 17 0 24 -2 18 -5z"/>
</g>
</svg>
