<?xml version="1.0" encoding="utf-8"?><!-- Uploaded to: SVG Repo, www.svgrepo.com, Generator: SVG Repo Mixer Tools -->
<svg width="800px" height="800px" viewBox="0 0 24 24" fill="none" xmlns="http://www.w3.org/2000/svg">
<path fill-rule="evenodd" clip-rule="evenodd" d="M20.5 7C22.433 7 24 5.433 24 3.5C24 1.567 22.433 0 20.5 0C18.567 0 17 1.567 17 3.5C17 5.433 18.567 7 20.5 7ZM20.5 5.05564C19.6408 5.05564 18.9444 4.35915 18.9444 3.5C18.9444 2.64085 19.6408 1.94436 20.5 1.94436C21.3592 1.94436 22.0556 2.64085 22.0556 3.5C22.0556 4.35915 21.3592 5.05564 20.5 5.05564Z" fill="#0F0F0F"/>
<path fill-rule="evenodd" clip-rule="evenodd" d="M13.7078 5.4541C13.0799 4.93383 12.1677 4.28637 11.0557 3.81685C9.9407 3.34606 8.59332 3.04155 7.12421 3.25702C5.64323 3.47423 4.12647 4.20731 2.66761 5.66617C1.20874 7.12504 0.475668 8.6418 0.258458 10.1228C0.0429883 11.5919 0.347494 12.9393 0.818283 14.0543C1.2878 15.1663 1.93527 16.0785 2.45554 16.7064C3.41494 17.8643 4.59256 18.9192 5.9971 19.4914C6.87432 19.8488 7.72645 19.9829 8.54843 20.0533C8.95269 20.088 9.34434 20.1087 9.73338 20.1292C10.9023 20.1909 12.0481 20.2514 13.4448 20.686L16.1026 23.3438C16.8837 24.1249 18.15 24.1249 18.9311 23.3438L20.3453 21.9296C21.1263 21.1486 21.1263 19.8823 20.3453 19.1012L17.6874 16.4434C17.2529 15.0467 17.1924 13.9008 17.1307 12.7319C17.1101 12.3429 17.0894 11.9512 17.0548 11.547C16.9843 10.725 16.8503 9.87287 16.4929 8.99566C15.9296 7.61298 14.8515 6.40174 13.7078 5.4541ZM6.75169 17.6393C6.97822 17.7315 7.20665 17.8046 7.44113 17.8632L14.8647 10.4397C14.8061 10.2052 14.733 9.97678 14.6407 9.75026C14.195 8.65625 13.3325 7.74043 12.4318 6.99415C11.8996 6.55319 11.1545 6.02952 10.2778 5.65935C9.40407 5.29045 8.43125 5.08672 7.41444 5.23585C6.40949 5.38325 5.2746 5.88761 4.08182 7.08039C2.88904 8.27317 2.38468 9.40806 2.23729 10.413C2.08816 11.4298 2.29188 12.4026 2.66078 13.2763C3.03095 14.1531 3.55463 14.8982 3.99558 15.4304C4.73734 16.3256 5.66586 17.1969 6.75169 17.6393ZM13.6892 18.6863C12.4788 18.3666 11.2522 18.2141 9.99483 18.1379L15.1394 12.9934C15.2155 14.2508 15.3681 15.4773 15.6877 16.6877L13.6892 18.6863ZM15.3955 19.8083L16.8097 18.3941L18.9311 20.5154L17.5168 21.9296L15.3955 19.8083Z" fill="#0F0F0F"/>
</svg>