<?xml version="1.0" encoding="utf-8"?>
<!-- Generator: Adobe Illustrator 27.5.0, SVG Export Plug-In . SVG Version: 6.00 Build 0)  -->
<svg version="1.1" xmlns="http://www.w3.org/2000/svg" xmlns:xlink="http://www.w3.org/1999/xlink" x="0px" y="0px"
	 viewBox="0 0 600 600" style="enable-background:new 0 0 600 600;" xml:space="preserve">
<g id="background">
	<rect style="fill:#FFFFFF;" width="600" height="600"/>
</g>
<g id="objects">
	<g>
		<ellipse style="fill:#DDDDDD;" cx="300" cy="530" rx="240" ry="13"/>
		<g>
			<circle style="fill:#DFE8EF;" cx="300" cy="294" r="240"/>
			<path style="fill:#1B70ED;" d="M420,86.193c0,0-18.207,12-45.352,50.069c-8.276,11.503-17.297,25.324-26.897,41.959
				C298.097,264.207,300,294,300,294s-20.524,13.655-98.897,16.138c6.124-146.318,90.538-228.414,123.145-254.897
				C358.841,58.717,391.283,69.559,420,86.193z"/>
			<path style="fill:#E8C21F;" d="M540,294c0,23.089-3.228,45.352-9.352,66.455c-9.02-46.924-41.545-150.869-156-224.193
				C401.793,98.193,420,86.193,420,86.193C491.752,127.573,540,205.117,540,294z"/>
			<path style="fill:#E8C21F;" d="M242.23,61.03c-15.88,13.78-39.07,37-60.59,70.27c-21.51,33.23-41.35,76.48-50.58,130.34
				c-2.53,14.73-4.26,30.26-5.02,46.59C79.53,303.77,60,294,60,294C60,181.37,137.54,86.85,242.23,61.03z"/>
			<path style="fill:#1B70ED;" d="M363.393,371.545c-129.765,67.862-243.062,35.835-282.29,20.855C67.531,362.359,60,329.09,60,294
				c0,0,19.531,9.765,66.041,14.234c14.069,1.407,30.621,2.317,49.821,2.317c9.021,0,17.462-0.166,25.241-0.414
				C279.476,307.655,300,294,300,294S322.096,304.924,363.393,371.545z"/>
			<path style="fill:#E8C21F;" d="M420,501.807C384.745,522.331,343.697,534,300,534c-67.862,0-129.186-28.221-172.717-73.407
				c45.186,15.641,151.448,39.31,272.028-23.09C418.676,480.041,420,501.807,420,501.807z"/>
			<path style="fill:#1B70ED;" d="M494.648,434.358c-19.779,27.393-45.269,50.566-74.648,67.448c0,0-1.324-21.766-20.69-64.304
				c-5.793-12.827-13.324-27.641-22.924-44.276c-4.552-7.779-8.855-15.062-12.993-21.683C322.096,304.924,300,294,300,294
				s-1.572-24.828,35.835-94.428C459.145,278.524,487.945,392.731,494.648,434.358z"/>
			<path style="fill:#FFFFFF;" d="M322.97,55.09c-3.58,2.84-7.73,6.91-10.74,9.99c-34.31,0.84-66.9,8.58-96.45,21.88l25.08-25.61
				C259.77,56.55,279.59,54,300,54C307.75,54,315.41,54.37,322.97,55.09z"/>
			<path style="fill:#FFEB99;" d="M60,294c0-111.91,76.6-205.94,180.23-232.49c0.21-0.06,0.42-0.12,0.63-0.16l-25.08,25.61
				c-0.02,0.01-0.04,0.02-0.05,0.03C133.861,123.854,75.378,203.427,68.649,297.331L60,294z"/>
			<path style="fill:#61A9FF;" d="M68.649,297.331c-0.43,6-0.649,12.059-0.649,18.169c0,23.84,3.33,46.9,9.55,68.74
				C66.23,356.39,60,325.92,60,294L68.649,297.331z"/>
			<path style="fill:#61A9FF;" d="M422.35,87.48C390.72,73.04,355.55,65,318.5,65c-1.83,0-3.65,0.02-5.47,0.06
				c-0.26,0-0.53,0.01-0.8,0.02c3.01-3.08,7.16-7.15,10.74-9.99c0.39,0.03,0.79,0.07,1.19,0.12
				C359.76,58.76,393.07,70.09,422.35,87.48z"/>
			<path style="fill:#CCA033;" d="M540,294c0,23.06-3.25,45.35-9.32,66.46c-0.01-0.01-0.02-0.01-0.03-0.01
				c-3.68-19.12-11.26-47.72-26.7-79.86c0.7-7.44,1.05-14.97,1.05-22.59c0-56.02-19.19-107.55-51.35-148.38
				C506.42,153.64,540,219.9,540,294z"/>
			<path style="fill:#B8C8D3;" d="M530.68,360.46c-7.73,26.88-20.03,51.83-36.01,73.94c0-0.01-0.01-0.03-0.02-0.04
				c-2.29-14.25-7.18-37-17.56-63.93v-0.01c14.48-27.25,23.85-57.61,26.86-89.83c15.44,32.14,23.02,60.74,26.7,79.86
				C530.66,360.45,530.67,360.45,530.68,360.46z"/>
			<path style="fill:#1264C6;" d="M494.67,434.4c-19.79,27.39-45.22,50.45-74.59,67.45c-0.03-0.01-1.08-18.85-14.34-49.42
				c29.59-21.46,54.1-49.52,71.35-82c10.38,26.93,15.27,49.68,17.56,63.93C494.66,434.37,494.67,434.39,494.67,434.4z"/>
			<path style="fill:#CCA033;" d="M419.93,501.94C384.65,522.33,343.69,534,300,534c-67.79,0-129.02-28.11-172.67-73.31
				c-0.02-0.03-0.03-0.07-0.05-0.1c5.32,1.84,11.48,3.79,18.43,5.71C180.86,486.47,221.58,498,265,498
				c52.58,0,101.2-16.9,140.74-45.57c3.601,8.886,6.716,17.967,9.527,27.135C420,495,419.96,501.9,419.93,501.94z"/>
			<path style="fill:#FFFFFF;" d="M204.22,151.83c-18.83,14.55-37.17,35.63-52.04,61.37c-9.33,16.16-16.39,32.6-21.12,48.44
				c9.23-53.86,29.07-97.11,50.58-130.34c6.24-0.67,12.03,0.33,17.03,3.22c2.65,1.53,4.95,3.51,6.9,5.89
				C208.44,143.89,207.8,149.07,204.22,151.83z"/>
			<path style="fill:#FFEB99;" d="M181.64,131.3c-21.51,33.23-41.35,76.48-50.58,130.34c-1,3.29-1.88,6.55-2.67,9.78
				c-1.24,5.13-7.05,7.79-11.63,5.17c-0.03-0.01-0.06-0.03-0.09-0.05c-21.28-12.28-20.18-54.04,2.46-93.26
				C136.45,153.28,161.36,133.46,181.64,131.3z"/>
			<path style="fill:#FFFFFF;" d="M215.732,115.34c1.683,9.517,14.701,15.172,24.218,13.489
				c9.517-1.683,19.546-12.936,17.864-22.453c-1.683-9.517-14.44-13.695-23.957-12.012
				C224.339,96.047,214.049,105.823,215.732,115.34z"/>
			<path style="fill:none;stroke:#1D2033;stroke-width:7;stroke-miterlimit:10;" d="M363.393,371.545
				c-129.765,67.862-243.062,35.835-282.29,20.855"/>
			<path style="fill:none;stroke:#1D2033;stroke-width:7;stroke-miterlimit:10;" d="M127.283,460.593
				c45.186,15.641,151.448,39.31,272.028-23.09"/>
			<path style="fill:none;stroke:#1D2033;stroke-width:7;stroke-miterlimit:10;" d="M201.103,310.138
				c6.124-146.318,90.538-228.414,123.145-254.897"/>
			<path style="fill:none;stroke:#1D2033;stroke-width:7;stroke-miterlimit:10;" d="M242.235,61.034
				c-36.083,31.283-109.904,111.393-116.193,247.2"/>
			<circle style="fill:none;stroke:#1D2033;stroke-width:7;stroke-miterlimit:10;" cx="300" cy="294" r="240"/>
			<path style="fill:none;stroke:#1D2033;stroke-width:7;stroke-miterlimit:10;" d="M420,86.193c0,0-18.207,12-45.352,50.069
				c-8.276,11.503-17.297,25.324-26.897,41.959C298.097,264.207,300,294,300,294"/>
			<path style="fill:none;stroke:#1D2033;stroke-width:7;stroke-miterlimit:10;" d="M530.648,360.455
				c-9.02-46.924-41.545-150.869-156-224.193"/>
			<path style="fill:none;stroke:#1D2033;stroke-width:7;stroke-miterlimit:10;" d="M335.835,199.572
				c123.31,78.952,152.11,193.159,158.814,234.786"/>
			<path style="fill:none;stroke:#1D2033;stroke-width:7;stroke-miterlimit:10;" d="M300,294c0,0-20.524,13.655-98.897,16.138
				c-25.031,0.798-50.119,0.493-75.062-1.904C79.531,303.765,60,294,60,294"/>
			<path style="fill:none;stroke:#1D2033;stroke-width:7;stroke-miterlimit:10;" d="M420,501.807c0,0-1.324-21.766-20.69-64.304
				c-10.377-22.795-22.648-44.728-35.917-65.958C322.096,304.924,300,294,300,294"/>
		</g>
	</g>
</g>
</svg>
